<svg width="20" height="20" viewBox="0 0 20 20" fill="none" xmlns="http://www.w3.org/2000/svg">
<path fill-rule="evenodd" clip-rule="evenodd" d="M9.1665 9.16675V2.50008C9.1665 2.03984 9.5396 1.66675 9.99984 1.66675C10.4601 1.66675 10.8332 2.03984 10.8332 2.50008V9.16675H17.4998C17.9601 9.16675 18.3332 9.53984 18.3332 10.0001C18.3332 10.4603 17.9601 10.8334 17.4998 10.8334H10.8332V17.5001C10.8332 17.9603 10.4601 18.3334 9.99984 18.3334C9.5396 18.3334 9.1665 17.9603 9.1665 17.5001V10.8334H2.49984C2.0396 10.8334 1.6665 10.4603 1.6665 10.0001C1.6665 9.53984 2.0396 9.16675 2.49984 9.16675H9.1665Z" fill="#313144"/>
</svg>
