<svg width="42" height="43" viewBox="0 0 42 43" fill="none" xmlns="http://www.w3.org/2000/svg">
<path d="M20.8209 40.4438C10.5319 40.4438 2.16895 32.0459 2.16895 21.7142C2.16895 11.3824 10.5319 2.98462 20.8209 2.98462C31.1098 2.98462 39.4728 11.3824 39.4728 21.7142C39.4728 32.0459 31.1098 40.4438 20.8209 40.4438ZM20.8209 5.59805C11.972 5.59805 4.77154 12.8285 4.77154 21.7142C4.77154 30.5998 11.972 37.8303 20.8209 37.8303C29.6697 37.8303 36.8702 30.5998 36.8702 21.7142C36.8702 12.8285 29.6697 5.59805 20.8209 5.59805Z" fill="#292D32"/>
<path d="M15.9107 27.9514C15.5811 27.9514 15.2514 27.8294 14.9911 27.5681C14.488 27.0628 14.488 26.2265 14.9911 25.7212L24.8116 15.8599C25.3148 15.3546 26.1476 15.3546 26.6508 15.8599C27.1539 16.3652 27.1539 17.2015 26.6508 17.7067L16.8303 27.5681C16.5874 27.8294 16.2404 27.9514 15.9107 27.9514Z" fill="#292D32"/>
<path d="M25.7312 27.9514C25.4015 27.9514 25.0719 27.8294 24.8116 27.5681L14.9911 17.7067C14.488 17.2015 14.488 16.3652 14.9911 15.8599C15.4943 15.3546 16.3271 15.3546 16.8303 15.8599L26.6508 25.7212C27.1539 26.2265 27.1539 27.0628 26.6508 27.5681C26.3905 27.8294 26.0608 27.9514 25.7312 27.9514Z" fill="#292D32"/>
</svg>
